<svg width="231" height="48" viewBox="0 0 231 48" fill="none" xmlns="http://www.w3.org/2000/svg">
<g filter="url(#filter0_d_18_12)">
<path d="M63.4759 36.4618L58.7337 31.6706V16.6704H53.5781V10.2629H58.7337V3.28297H66.932V10.2629H75.7467V16.6704H66.932V29.0139L67.6018 29.6907H76.1599V36.4618H63.4759Z" fill="white"/>
<path d="M80.8488 36.4618V10.2629H87.3974V12.3471H88.3772L90.8 10.2629H100.285V17.034H91.4698L89.0471 19.0139V36.4618H80.8488Z" fill="white"/>
<path d="M103.377 6.14837V0H111.779V6.14477H103.377V6.14837ZM103.48 36.4618V10.2629H111.679V36.4618H103.48Z" fill="white"/>
<path d="M119.667 36.4618V6.35715H114.511V0H127.865V36.4582H119.667V36.4618Z" fill="white"/>
<path d="M135.183 36.4618V0H143.382V11.8216H143.898L145.804 10.2593H156.732L162.454 16.0405V36.4582H154.256V18.8015L152.503 17.0304H146.008L143.378 19.165V36.4582H135.18L135.183 36.4618Z" fill="white"/>
<path d="M172.455 36.4618L167.713 31.6706V25.0038L172.612 20.0542H186.942V18.3875L185.446 16.8252H171.219V10.2629H189.828L195.137 15.6265V36.4618H188.588V34.3272H187.761L185.235 36.4618H172.452H172.455ZM184.569 30.2127L186.942 28.2868V25.371H177.197L175.908 26.6741V29.2767L176.834 30.2127H184.569Z" fill="white"/>
<path d="M201.326 36.4618V30.2127H217.875L218.802 29.2767V27.4553L217.875 26.4653H205.658L200.916 21.7245V15.0037L205.658 10.2629H225.557V16.512H210.04L209.114 17.448V19.2694L210.04 20.2054H222.258L227 24.9966V31.6634L222.258 36.4546H201.329L201.326 36.4618Z" fill="white"/>
<path d="M35.4001 1.97986H9.87883L4 8.38381L4.30997 34.014L10.032 39.4856H34.6269L41.1257 34.014L41.4357 8.07063L35.4036 1.97626L35.4001 1.97986ZM36.4975 31.7426L35.2647 32.7793H31.5842L30.4725 31.721L30.4654 31.1306H16.6626L13.4703 27.9052V22.628L16.6626 19.4026H26.5319L28.2742 17.6424V14.8561L26.5319 13.0959H14.9667L14.9596 13.7834L13.7268 14.8238H10.0463L8.93465 13.7618L8.88834 9.9029L9.99997 8.68979H13.8586L15.0023 9.8489L14.9952 10.6049H27.8395L31.0319 13.8302V18.6683L27.8395 21.8937H17.9702L16.228 23.6539V26.8793L17.9702 28.6396H30.4369L30.4298 27.862L31.5414 26.6489H35.3965L36.5438 27.8044L36.4975 31.7426Z" fill="white"/>
</g>
<defs>
<filter id="filter0_d_18_12" x="0" y="0" width="231" height="47.4856" filterUnits="userSpaceOnUse" color-interpolation-filters="sRGB">
<feFlood flood-opacity="0" result="BackgroundImageFix"/>
<feColorMatrix in="SourceAlpha" type="matrix" values="0 0 0 0 0 0 0 0 0 0 0 0 0 0 0 0 0 0 127 0" result="hardAlpha"/>
<feOffset dy="4"/>
<feGaussianBlur stdDeviation="2"/>
<feComposite in2="hardAlpha" operator="out"/>
<feColorMatrix type="matrix" values="0 0 0 0 0.129412 0 0 0 0 0.207843 0 0 0 0 0.65098 0 0 0 1 0"/>
<feBlend mode="normal" in2="BackgroundImageFix" result="effect1_dropShadow_18_12"/>
<feBlend mode="normal" in="SourceGraphic" in2="effect1_dropShadow_18_12" result="shape"/>
</filter>
</defs>
</svg>
